<?xml version="1.0" encoding="utf-8"?>
<!-- Generator: Adobe Illustrator 17.1.0, SVG Export Plug-In . SVG Version: 6.00 Build 0)  -->
<!DOCTYPE svg PUBLIC "-//W3C//DTD SVG 1.1//EN" "http://www.w3.org/Graphics/SVG/1.1/DTD/svg11.dtd">
<svg version="1.1" id="Layer_1" xmlns="http://www.w3.org/2000/svg" xmlns:xlink="http://www.w3.org/1999/xlink" x="0px" y="0px"
	 viewBox="0 561.788 595.28 280.102" enable-background="new 0 561.788 595.28 280.102" xml:space="preserve">
<g id="Layer_1_1_">
	<g>
		<g>
			<g>
				<g>
					<defs>
						<path id="SVGID_1_" d="M566.238,643.159l-18.717-19.696l-38.289,36.383l-41.645-12.304l-14.45-60.404l31.129-29.578
							l49.937,14.753l7.699-26.055l-34.893-10.311l26.916-25.579l-18.717-19.696l-26.374,25.064l-8.692-36.1l-26.417,6.362
							l12.366,51.35l-31.157,29.607l-59.961-17.82l-9.948-41.309l37.746-35.87l-18.717-19.696l-26.374,25.064l-8.693-36.1
							l-26.417,6.362l8.517,35.373l-35.609-10.524l-7.699,26.055l50.655,14.967l9.993,41.493l-45.619,43.228l-40.474-11.96
							l-12.193-50.62l-26.417,6.362l8.517,35.373l-35.609-10.521l-7.699,26.058l34.893,10.311l-26.916,25.579l18.717,19.696
							l38.289-36.39l41.085,12.139l14.584,60.971l-30.703,29.175L228.947,699.6l-7.699,26.058l34.893,10.311l-26.916,25.579
							l18.717,19.696l26.374-25.064l8.692,36.1l26.417-6.362l-12.366-51.35l31.384-29.823l59.66,17.731l10.021,41.613l-37.746,35.87
							l18.717,19.696l26.374-25.064l8.692,36.1l26.417-6.362l-8.52-35.373l35.609,10.521l7.699-26.058l-50.655-14.967
							l-10.203-42.368l44.965-42.609l41.337,12.213l12.191,50.624l26.417-6.362l-8.517-35.373l35.609,10.521l7.699-26.058
							l-34.893-10.311L566.238,643.159z M431.049,650.517l-37.706,35.719l-49.786-14.796l-12.086-50.512l37.706-35.719
							l49.786,14.796L431.049,650.517z"/>
					</defs>
					<clipPath id="SVGID_2_">
						<use xlink:href="#SVGID_1_"  overflow="visible"/>
					</clipPath>
					<g opacity="0.83" clip-path="url(#SVGID_2_)">
						<polyline fill="#ACDAF5" points="388.672,363.145 382.961,587.175 388.377,590.488 418.28,574.227 423.639,364.037 
							388.672,363.145 						"/>
						<polyline fill="#D5D7D8" points="385.135,679.726 380.539,682.227 374.884,904.006 409.848,904.897 415.122,698.074 
							385.135,679.726 						"/>
						<polyline fill="#D5D7D8" points="424.574,658.278 416.019,662.931 415.122,698.074 594.179,807.63 614.468,774.466 
							424.574,658.278 						"/>
						<polyline fill="#D5D7D8" points="152.992,492.045 132.674,525.258 309.444,633.415 347.23,612.867 347.279,610.985 
							153.835,492.625 153.864,492.579 152.992,492.045 						"/>
						<polyline fill="#D5D7D8" points="381.672,637.736 381.583,637.784 381.575,638.06 381.666,638.011 381.672,637.736 						"/>
						<polyline fill="#B7B9BB" points="386.609,635.05 381.672,637.736 381.666,638.011 386.847,635.195 386.609,635.05 						"/>
						<polyline fill="#B7B9BB" points="416.019,662.931 385.135,679.726 415.122,698.074 416.019,662.931 						"/>
						<polyline fill="#D5D7D8" points="346.097,657.356 151.163,763.369 169.463,797.018 344.967,701.572 346.097,657.356 						"/>
						<polyline fill="#D5D7D8" points="380.584,676.944 380.448,682.275 380.539,682.227 380.673,676.995 380.584,676.944 						"/>
						<polyline fill="#D5D7D8" points="626.46,504.88 426.339,613.716 464.065,636.799 644.76,538.53 626.46,504.88 						"/>
						<polyline fill="#B7B9BB" points="380.673,676.995 380.673,676.995 380.539,682.227 385.135,679.726 380.673,676.995 						"/>
						<polyline fill="#B7B9BB" points="381.666,638.011 381.575,638.06 380.584,676.944 380.673,676.995 381.666,638.011 						"/>
						<polyline fill="#B7B9BB" points="416.266,653.197 416.019,662.931 424.574,658.278 416.266,653.197 						"/>
						<polyline fill="#9FA1A4" points="386.847,635.195 386.847,635.195 381.666,638.011 380.673,676.995 385.135,679.726 
							416.019,662.931 416.266,653.197 386.847,635.195 						"/>
						<polyline fill="#C7EAFB" points="380.448,682.275 344.967,701.572 339.815,903.711 374.782,904.602 380.448,682.275 						"/>
						<polyline fill="#C7EAFB" points="353.606,362.85 348.425,566.045 382.875,587.121 388.57,363.741 353.606,362.85 						"/>
						<polyline fill="#C7EAFB" points="347.171,656.498 346.103,657.08 346.097,657.356 347.409,656.643 347.171,656.498 						"/>
						<polyline fill="#AECDDD" points="381.583,637.784 347.171,656.498 347.409,656.643 381.575,638.06 381.583,637.784 						"/>
						<polyline fill="#AECDDD" points="347.279,610.985 347.279,610.985 347.23,612.867 348.882,611.967 347.279,610.985 						"/>
						<polyline fill="#AECDDD" points="347.409,656.643 347.409,656.643 346.097,657.356 344.967,701.572 380.448,682.275 
							380.584,676.944 347.409,656.643 						"/>
						<polyline fill="#9BB7C6" points="381.575,638.06 347.409,656.643 380.584,676.944 381.575,638.06 						"/>
						<polyline fill="#D7E8F7" points="382.875,587.121 382.875,587.121 382.711,593.571 382.799,593.523 382.961,587.175 
							382.875,587.121 						"/>
						<polyline fill="#D7E8F7" points="464.065,636.799 464.065,636.799 424.627,658.247 614.496,774.421 614.468,774.466 
							615.339,775 635.658,741.788 464.065,636.799 						"/>
						<polyline fill="#D7E8F7" points="174.153,459.415 153.864,492.579 347.281,610.923 348.425,566.045 174.153,459.415 						"/>
						<polyline fill="#D7E8F7" points="426.104,613.571 417.152,618.44 417.147,618.715 426.339,613.716 426.104,613.571 						"/>
						<polyline fill="#BCCBD9" points="417.152,618.44 386.666,635.019 386.901,635.163 417.147,618.715 417.152,618.44 						"/>
						<polyline fill="#BCCBD9" points="382.961,587.175 382.961,587.175 382.799,593.523 388.377,590.488 382.961,587.175 						"/>
						<polyline fill="#BCCBD9" points="153.864,492.579 153.864,492.579 153.835,492.625 347.279,610.985 347.281,610.923 
							153.864,492.579 						"/>
						<polyline fill="#BCCBD9" points="424.627,658.247 424.574,658.278 614.468,774.466 614.496,774.421 424.627,658.247 						"/>
						<polyline fill="#A7B6C3" points="386.666,635.019 386.609,635.05 386.847,635.195 386.901,635.163 386.666,635.019 						"/>
						<polyline fill="#BCCBD9" points="426.339,613.716 426.339,613.716 417.147,618.715 416.266,653.132 424.627,658.247 
							464.065,636.799 426.339,613.716 						"/>
						<polyline fill="#A7B6C3" points="417.147,618.715 386.901,635.163 416.266,653.132 417.147,618.715 						"/>
						<polyline fill="#A7B6C3" points="416.266,653.132 416.266,653.132 416.266,653.197 424.574,658.278 424.627,658.247 
							416.266,653.132 						"/>
						<polyline fill="#9FA1A4" points="386.901,635.163 386.901,635.163 386.847,635.195 416.266,653.197 416.266,653.132 
							386.901,635.163 						"/>
						<polyline fill="#ACDAF5" points="348.425,566.045 348.425,566.045 347.281,610.923 348.939,611.936 382.711,593.571 
							382.875,587.121 348.425,566.045 						"/>
						<polyline fill="#9BC4DC" points="347.281,610.923 347.281,610.923 347.279,610.985 348.882,611.967 348.939,611.936 
							347.281,610.923 						"/>
						<polyline fill="#D7E8F7" points="309.444,633.415 309.444,633.415 132.293,729.759 150.593,763.409 346.103,657.08 
							346.135,655.865 309.444,633.415 						"/>
						<polyline fill="#C7EAFB" points="607.587,471.27 418.28,574.227 417.414,608.254 426.104,613.571 625.886,504.92 
							607.587,471.27 						"/>
						<polyline fill="#BCCBD9" points="418.28,574.227 388.377,590.488 417.414,608.254 418.28,574.227 						"/>
						<polyline fill="#BCCBD9" points="347.23,612.867 309.444,633.415 346.135,655.865 347.23,612.867 						"/>
						<polyline fill="#BCCBD9" points="381.728,632.064 381.583,637.784 381.672,637.736 381.817,632.118 381.728,632.064 						"/>
						<polyline fill="#A7B6C3" points="381.817,632.118 381.817,632.118 381.672,637.736 386.609,635.05 381.817,632.118 						"/>
						<polyline fill="#ACDAF5" points="346.135,655.865 346.135,655.865 346.103,657.08 347.171,656.498 346.135,655.865 						"/>
						<polyline fill="#9BC4DC" points="348.882,611.967 348.882,611.967 347.23,612.867 346.135,655.865 347.171,656.498 
							381.583,637.784 381.728,632.064 348.882,611.967 						"/>
						<polyline fill="#B9DAF3" points="417.414,608.254 417.414,608.254 417.152,618.44 426.104,613.571 417.414,608.254 						"/>
						<polyline fill="#B9DAF3" points="382.799,593.523 382.711,593.571 381.731,632.002 381.817,632.053 382.799,593.523 						"/>
						<polyline fill="#A7C4DB" points="388.377,590.488 388.377,590.488 382.799,593.523 381.817,632.053 386.666,635.019 
							417.152,618.44 417.414,608.254 388.377,590.488 						"/>
						<polyline fill="#A7C4DB" points="381.731,632.002 381.728,632.064 381.817,632.118 381.817,632.053 381.731,632.002 						"/>
						<polyline fill="#99B4C9" points="381.817,632.053 381.817,632.118 386.609,635.05 386.666,635.019 381.817,632.053 						"/>
						<polyline fill="#96CEF0" points="382.711,593.571 348.939,611.936 381.731,632.002 382.711,593.571 						"/>
						<polyline fill="#9BC4DC" points="348.939,611.936 348.939,611.936 348.882,611.967 381.728,632.064 381.731,632.002 
							348.939,611.936 						"/>
					</g>
				</g>
			</g>
		</g>
		<g>
			<g>
				<g>
					<defs>
						<path id="SVGID_3_" d="M566.238,643.159l-18.717-19.696l-38.289,36.383l-41.645-12.304l-14.45-60.404l31.129-29.578
							l49.937,14.753l7.699-26.055l-34.893-10.311l26.916-25.579l-18.717-19.696l-26.374,25.064l-8.692-36.1l-26.417,6.362
							l12.366,51.35l-31.157,29.607l-59.961-17.82l-9.948-41.309l37.746-35.87l-18.717-19.696l-26.374,25.064l-8.693-36.1
							l-26.417,6.362l8.517,35.373l-35.609-10.524l-7.699,26.055l50.655,14.967l9.993,41.493l-45.619,43.228l-40.474-11.96
							l-12.193-50.62l-26.417,6.362l8.517,35.373l-35.609-10.521l-7.699,26.058l34.893,10.311l-26.916,25.579l18.717,19.696
							l38.289-36.39l41.085,12.139l14.584,60.971l-30.703,29.175L228.947,699.6l-7.699,26.058l34.893,10.311l-26.916,25.579
							l18.717,19.696l26.374-25.064l8.692,36.1l26.417-6.362l-12.366-51.35l31.384-29.823l59.66,17.731l10.021,41.613l-37.746,35.87
							l18.717,19.696l26.374-25.064l8.692,36.1l26.417-6.362l-8.52-35.373l35.609,10.521l7.699-26.058l-50.655-14.967
							l-10.203-42.368l44.965-42.609l41.337,12.213l12.191,50.624l26.417-6.362l-8.517-35.373l35.609,10.521l7.699-26.058
							l-34.893-10.311L566.238,643.159z M431.049,650.517l-37.706,35.719l-49.786-14.796l-12.086-50.512l37.706-35.719
							l49.786,14.796L431.049,650.517z"/>
					</defs>
					<clipPath id="SVGID_4_">
						<use xlink:href="#SVGID_3_"  overflow="visible"/>
					</clipPath>
					<g opacity="0.8" clip-path="url(#SVGID_4_)">
						<path fill="#D5D7D8" d="M358.858,675.995L243.076,865.229l29.809,18.24l107.563-175.8l-17.164-31.56L358.858,675.995
							 M525.423,403.711l-0.523,0.852l0.026,0.017L408.051,595.598l2.691,4.948l34.709,0.886l109.809-179.468L525.423,403.711"/>
						<path fill="#D5D7D8" d="M399.199,677.023l-18.748,30.643l100.302,184.427l34.135-18.563L408.143,677.253L399.199,677.023
							 M256.464,398.199L222.261,416.8l98.686,181.458l43.79,1.115l0.556-0.908L256.5,398.425l0.065-0.037L256.464,398.199"/>
						<path fill="#B7B9BB" d="M363.287,676.11l17.164,31.56l18.748-30.643L363.287,676.11 M382.026,638.127l-0.085,0.142
							l5.067,0.131l-0.08-0.145L382.026,638.127"/>
						<path fill="#E7EBED" d="M431.952,639.545l21.13,38.853l205.62,5.244l0.977-38.291L431.952,639.545 M118.817,631.561
							l-0.977,38.291l200.643,5.116l23.083-37.727L118.817,631.561"/>
						<polyline fill="#B7B9BB" points="361.169,672.217 358.858,675.995 363.287,676.11 361.169,672.217 						"/>
						<polyline fill="#B7B9BB" points="403.866,669.395 399.199,677.023 408.142,677.251 403.866,669.395 						"/>
						<polyline fill="#9FA1A4" points="381.941,638.27 361.169,672.217 363.287,676.11 399.199,677.023 403.866,669.395 
							387.009,638.398 381.941,638.27 						"/>
						<path fill="#C7EAFB" d="M341.654,637.1l-0.085,0.142l0.588,0.014l-0.08-0.145L341.654,637.1 M495.092,386.322L388.755,560.117
							l19.279,35.45L524.9,404.563L495.092,386.322"/>
						<polyline fill="#AECDDD" points="524.9,404.562 408.033,595.566 408.051,595.598 524.926,404.576 524.9,404.562 						"/>
						<path fill="#AECDDD" d="M342.078,637.112l0.08,0.145l39.75,1.013l0.085-0.142L342.078,637.112 M365.291,598.466l-0.556,0.908
							l1.064,0.029L365.291,598.466"/>
						<polyline fill="#9BB7C6" points="381.992,638.127 381.908,638.27 381.941,638.27 382.026,638.127 381.992,638.127 						"/>
						<polyline fill="#C7EAFB" points="318.483,674.966 212.719,847.826 242.554,866.08 243.076,865.229 243.051,865.212 
							358.824,675.995 318.483,674.966 						"/>
						<polyline fill="#AECDDD" points="358.824,675.995 243.051,865.212 243.076,865.229 358.858,675.995 358.824,675.995 						"/>
						<polyline fill="#D7E8F7" points="341.567,637.239 318.483,674.966 358.824,675.995 361.152,672.186 342.154,637.255 
							341.567,637.239 						"/>
						<polyline fill="#9BB7C6" points="361.152,672.186 358.824,675.995 358.858,675.995 361.169,672.217 361.152,672.186 						"/>
						<polyline fill="#9BB7C6" points="342.154,637.255 361.152,672.186 381.908,638.27 342.154,637.255 						"/>
						<polyline fill="#8CA6B3" points="381.908,638.27 361.152,672.186 361.169,672.217 381.941,638.27 381.908,638.27 						"/>
						<polyline fill="#D7E8F7" points="290.702,379.824 256.567,398.387 365.337,598.388 388.755,560.117 290.702,379.824 						"/>
						<polyline fill="#BCCBD9" points="408.051,595.598 405.109,600.402 410.742,600.547 408.051,595.598 						"/>
						<polyline fill="#BCCBD9" points="256.567,398.387 256.502,398.424 365.291,598.466 365.337,598.388 256.567,398.387 						"/>
						<polyline fill="#ACDAF5" points="388.755,560.117 365.337,598.388 365.888,599.402 405.076,600.402 408.033,595.566 
							388.755,560.117 						"/>
						<polyline fill="#9BC4DC" points="408.033,595.566 405.076,600.402 405.109,600.402 408.051,595.598 408.033,595.566 						"/>
						<polyline fill="#9BC4DC" points="365.337,598.388 365.291,598.466 365.802,599.399 365.888,599.402 365.337,598.388 						"/>
						<path fill="#D7E8F7" d="M408.227,677.254l106.723,196.24l-0.065,0.037l0.102,0.188l34.203-18.601l-96.109-176.719
							L408.227,677.254 M422.367,639.158l-0.085,0.142l9.669,0.247l-0.08-0.145L422.367,639.158"/>
						<polyline fill="#BCCBD9" points="387.018,638.256 387.097,638.401 422.283,639.298 422.367,639.158 387.018,638.256 						"/>
						<polyline fill="#BCCBD9" points="408.142,677.251 514.884,873.531 514.953,873.493 408.227,677.254 408.142,677.251 						"/>
						<polyline fill="#A7B6C3" points="386.932,638.253 387.009,638.398 387.097,638.401 387.018,638.256 386.932,638.253 						"/>
						<polyline fill="#BCCBD9" points="422.283,639.298 403.911,669.319 408.227,677.254 453.082,678.398 431.952,639.545 
							422.283,639.298 						"/>
						<polyline fill="#A7B6C3" points="387.097,638.401 403.911,669.319 422.283,639.298 387.097,638.401 						"/>
						<polyline fill="#A7B6C3" points="403.911,669.319 403.866,669.395 408.142,677.251 408.227,677.254 403.911,669.319 						"/>
						<polyline fill="#97A4B0" points="387.009,638.398 403.866,669.395 403.911,669.319 387.097,638.401 387.009,638.398 						"/>
						<polyline fill="#D7E8F7" points="119.68,593.125 118.703,631.414 341.654,637.1 341.873,636.736 320.948,598.258 
							119.68,593.125 						"/>
						<polyline fill="#BCCBD9" points="320.948,598.258 341.873,636.736 364.735,599.374 320.948,598.258 						"/>
						<polyline fill="#A7B6C3" points="384.588,633.946 382.026,638.127 386.932,638.253 384.588,633.946 						"/>
						<polyline fill="#ACDAF5" points="341.873,636.736 341.654,637.1 342.078,637.112 341.873,636.736 						"/>
						<polyline fill="#9BC4DC" points="364.735,599.374 341.873,636.736 342.078,637.112 381.992,638.127 384.57,633.914 
							365.802,599.399 364.735,599.374 						"/>
						<polyline fill="#8EB4CB" points="384.57,633.914 381.992,638.127 382.026,638.127 384.588,633.946 384.57,633.914 						"/>
						<polyline fill="#D7E8F7" points="445.451,601.431 427.33,631.047 431.872,639.4 659.567,645.205 660.544,606.914 
							445.451,601.431 						"/>
						<polyline fill="#BCCBD9" points="410.742,600.547 427.33,631.047 445.451,601.431 410.742,600.547 						"/>
						<polyline fill="#B9DAF3" points="427.33,631.047 422.367,639.158 431.872,639.4 427.33,631.047 						"/>
						<polyline fill="#A7C4DB" points="405.109,600.402 384.633,633.869 387.018,638.256 422.367,639.158 427.33,631.047 
							410.742,600.547 405.109,600.402 						"/>
						<polyline fill="#99B4C9" points="384.633,633.869 384.588,633.946 386.932,638.253 387.018,638.256 384.633,633.869 						"/>
						<polyline fill="#96CEF0" points="365.888,599.402 384.615,633.838 405.076,600.402 365.888,599.402 						"/>
						<polyline fill="#8ABEDD" points="405.076,600.402 384.615,633.838 384.633,633.869 405.109,600.402 405.076,600.402 						"/>
						<polyline fill="#8ABEDD" points="365.802,599.399 384.57,633.914 384.615,633.838 365.888,599.402 365.802,599.399 						"/>
						<polyline fill="#81B2CF" points="384.615,633.838 384.57,633.914 384.588,633.946 384.633,633.869 384.615,633.838 						"/>
					</g>
				</g>
			</g>
		</g>
	</g>
	<g>
		<circle fill="#E7EBED" cx="270.341" cy="508.781" r="4.551"/>
		<circle fill="#CAD5DA" cx="289.745" cy="533.977" r="11.552"/>
		<circle fill="#CAD5DA" cx="259.013" cy="551.523" r="4.551"/>
		<circle fill="#E7EBED" cx="285.865" cy="568.566" r="11.552"/>
		<circle fill="#CAD5DA" cx="212.899" cy="597.478" r="4.551"/>
		<circle fill="#E7EBED" cx="243.959" cy="604.305" r="11.552"/>
		<circle fill="#E7EBED" cx="231.695" cy="637.5" r="4.551"/>
		<circle fill="#CAD5DA" cx="263.218" cy="633.296" r="11.552"/>
		<circle fill="#CAD5DA" cx="225.906" cy="702.344" r="4.551"/>
		<circle fill="#E7EBED" cx="254.091" cy="687.61" r="11.552"/>
		<circle fill="#E7EBED" cx="266.034" cy="720.921" r="4.551"/>
		<circle fill="#CAD5DA" cx="287.479" cy="697.438" r="11.552"/>
		<circle fill="#E7EBED" cx="303.281" cy="774.315" r="4.551"/>
		<circle fill="#CAD5DA" cx="315.4" cy="744.913" r="11.552"/>
		<circle fill="#CAD5DA" cx="345.961" cy="762.753" r="4.551"/>
		<circle fill="#E7EBED" cx="347.293" cy="730.98" r="11.552"/>
		<circle fill="#CAD5DA" cx="408.814" cy="779.715" r="4.551"/>
		<circle fill="#E7EBED" cx="399.196" cy="749.401" r="11.552"/>
		<circle fill="#E7EBED" cx="434.078" cy="743.423" r="4.551"/>
		<circle fill="#CAD5DA" cx="414.674" cy="718.228" r="11.552"/>
		<circle fill="#CAD5DA" cx="493.128" cy="716.016" r="4.551"/>
		<circle fill="#CAD5DA" cx="466.277" cy="698.974" r="11.552"/>
		<circle fill="#E7EBED" cx="489.153" cy="671.973" r="4.551"/>
		<circle fill="#CAD5DA" cx="458.093" cy="665.146" r="11.552"/>
		<circle fill="#CAD5DA" cx="516.769" cy="613.023" r="4.551"/>
		<circle fill="#CAD5DA" cx="485.247" cy="617.228" r="11.552"/>
		<circle fill="#CAD5DA" cx="485.417" cy="581.84" r="4.551"/>
		<circle fill="#E7EBED" cx="457.232" cy="596.574" r="11.552"/>
		<circle fill="#CAD5DA" cx="468.679" cy="518.927" r="4.551"/>
		<circle fill="#CAD5DA" cx="447.234" cy="542.414" r="11.552"/>
		<circle fill="#E7EBED" cx="424.619" cy="515.194" r="4.551"/>
		<circle fill="#CAD5DA" cx="412.499" cy="544.597" r="11.552"/>
		<circle fill="#CAD5DA" cx="371.358" cy="477.76" r="4.551"/>
		<circle fill="#E7EBED" cx="370.026" cy="509.534" r="11.552"/>
		<circle fill="#CAD5DA" cx="335.204" cy="503.223" r="4.551"/>
		<circle fill="#CAD5DA" cx="344.82" cy="533.537" r="11.552"/>
	</g>
</g>
<g id="Layer_2">
	<g>
		<g enable-background="new    ">
			<path fill="#414042" d="M70.649,656.546c0-9.314-21.377-3.814-21.377-18.539c0-6.12,3.991-12.773,15.168-12.773
				c6.653,0,13.305,2.395,13.305,5.233c0,1.331-1.331,4.524-3.549,4.524c-1.863,0-4.613-2.573-9.58-2.573
				c-5.234,0-7.185,2.927-7.185,5.145c0,7.805,21.555,2.661,21.555,18.628c0,7.54-5.589,12.33-15.612,12.33
				c-8.781,0-15.257-3.725-15.257-7.096c0-1.596,1.331-4.169,3.193-4.169c2.306,0,4.169,4.08,11.798,4.08
				C68.963,661.337,70.649,658.942,70.649,656.546z"/>
			<path fill="#414042" d="M95.749,664.708c0,1.508-2.218,3.105-4.701,3.105c-2.749,0-4.613-1.596-4.613-3.105v-35.925
				c0-1.774,1.863-3.016,4.613-3.016c2.307,0,4.169,1.242,4.169,3.016v3.193c1.774-3.46,5.943-6.741,11.886-6.741
				c8.338,0,15.434,7.894,15.434,17.474v21.998c0,2.04-2.307,3.105-4.701,3.105c-2.129,0-4.613-1.065-4.613-3.105v-21.998
				c0-4.613-3.991-9.225-8.959-9.225c-4.258,0-8.516,3.46-8.516,9.225C95.749,642.709,95.749,664.708,95.749,664.708z"/>
			<path fill="#414042" d="M166.973,642.709v8.16c0,9.225-8.604,17.652-18.361,17.652c-9.845,0-18.361-8.338-18.361-17.652v-8.16
				c0-9.314,8.249-17.474,18.361-17.474C158.369,625.235,166.973,633.129,166.973,642.709z M157.659,642.709
				c0-4.613-4.08-9.225-9.047-9.225c-5.056,0-9.047,4.613-9.047,9.225v8.16c0,4.79,3.991,9.403,9.047,9.403
				c4.967,0,9.047-4.613,9.047-9.403V642.709z"/>
			<path fill="#414042" d="M215.844,666.836c-0.532,1.42-2.04,1.863-3.725,1.863c-1.774,0-3.282-0.62-3.814-1.774l-7.718-22.885
				l-7.629,22.619c-0.532,1.331-2.218,2.04-3.991,2.04c-1.685,0-3.105-0.444-3.725-2.04l-13.749-35.835
				c-0.178-0.532-0.355-1.064-0.355-1.508c0-2.218,3.46-3.903,5.943-3.903c1.242,0,2.395,0.532,2.838,1.685l9.845,27.586
				l7.54-24.482c0.532-1.685,1.774-2.04,3.282-2.04c1.508,0,2.749,0.355,3.282,2.04l7.451,24.659l9.934-27.764
				c0.355-1.064,1.42-1.685,2.749-1.685c2.306,0,5.943,1.596,5.943,3.991c0,0.444-0.178,1.064-0.355,1.42L215.844,666.836z"/>
			<path fill="#414042" d="M244.668,628.783v3.193c1.951-3.46,6.209-6.741,11.886-6.741c8.87,0,15.967,7.894,15.967,17.474v8.16
				c0,9.225-7.274,17.652-15.612,17.652c-5.322,0-9.934-3.282-11.709-6.918v23.063c0,1.596-2.129,3.105-4.79,3.105
				s-4.524-1.508-4.524-3.105v-55.883c0-1.774,1.951-3.016,4.435-3.016S244.668,627.009,244.668,628.783z M263.207,642.709
				c0-4.613-4.169-9.225-9.225-9.225c-4.347,0-8.781,3.46-8.781,9.225v10.201c0,2.129,3.725,7.362,8.959,7.362
				c4.79,0,9.047-4.613,9.047-9.403V642.709z"/>
			<path fill="#414042" d="M311.99,642.443v22.264c0,1.685-1.951,3.105-4.525,3.105c-2.394,0-4.257-1.42-4.257-3.105v-3.105
				c-3.105,3.636-7.362,6.918-13.394,6.918c-6.476,0-11.798-3.725-11.798-11.709c0-10.023,8.427-12.685,20.756-12.685h3.903v-1.596
				c0-4.524-2.306-9.58-8.781-9.58s-8.072,2.661-9.845,2.661c-2.218,0-3.371-2.573-3.371-4.701c0-3.193,7.362-5.676,13.394-5.676
				C307.111,625.235,311.99,633.573,311.99,642.443z M302.677,649.274h-2.218c-6.741,0-13.039,0.709-13.039,6.387
				c0,3.991,2.484,5.765,5.765,5.765c4.435,0,9.491-4.613,9.491-8.87L302.677,649.274L302.677,649.274z"/>
			<path fill="#414042" d="M320.059,650.87v-7.983c0-9.934,5.676-17.652,18.361-17.652c8.072,0,13.572,3.371,13.572,6.476
				c0,1.774-1.508,4.524-3.725,4.524c-1.863,0-3.46-2.749-9.136-2.749c-6.653,0-9.758,3.549-9.758,9.403v7.983
				c0,5.854,3.016,9.403,9.845,9.403c5.854,0,7.274-2.927,9.314-2.927c2.484,0,3.991,2.573,3.991,4.435
				c0,3.105-5.854,6.741-14.014,6.741C325.735,668.522,320.059,660.982,320.059,650.87z"/>
			<path fill="#414042" d="M381.437,642l13.927,20.047c0.355,0.532,0.532,1.153,0.532,1.596c0,2.218-3.016,4.701-5.233,4.701
				c-0.976,0-1.863-0.444-2.484-1.331l-13.039-19.248l-6.476,5.854v11.088c0,1.508-2.129,3.105-4.79,3.105
				c-2.661,0-4.524-1.596-4.524-3.105v-60.938c0-1.774,1.863-3.016,4.524-3.016s4.79,1.242,4.79,3.016v39.473l18.539-17.031
				c0.532-0.532,1.242-0.798,1.951-0.798c2.04,0,4.524,2.306,4.524,4.435c0,0.709-0.266,1.42-0.798,1.951L381.437,642z"/>
		</g>
		<g enable-background="new    ">
			<path fill="#414042" d="M302.275,704.342c0-6.387-4.613-10.999-10.112-10.999c-5.145,0-10.467,4.08-10.467,11.265v23.595
				c0,1.153-1.331,2.307-2.927,2.307c-1.596,0-2.838-1.153-2.838-2.307v-37.521c0-1.242,1.242-2.129,2.838-2.129
				c1.508,0,2.749,0.887,2.749,2.129v4.08c1.951-3.46,5.943-6.741,11.798-6.741c5.855,0,10.467,3.636,12.596,8.87
				c3.105-6.032,8.338-8.87,13.483-8.87c7.629,0,14.902,6.032,14.902,16.587v23.595c0,1.153-1.242,2.307-2.927,2.307
				c-1.508,0-2.838-1.153-2.838-2.307v-23.595c0-7.451-5.233-11.265-10.112-11.265c-5.145,0-10.378,4.258-10.378,10.91v24.039
				c0,1.596-1.508,2.218-2.927,2.218c-1.331,0-2.839-0.62-2.839-2.218L302.275,704.342L302.275,704.342z"/>
			<path fill="#414042" d="M377.047,704.165c0,6.83-3.814,7.096-7.718,7.096h-20.047v3.282c0,7.096,5.676,11.531,13.483,11.531
				c7.007,0,8.693-3.549,10.645-3.549c1.42,0,2.484,1.685,2.484,2.749c0,2.129-5.056,5.854-13.305,5.854
				c-11.176,0-19.071-6.741-19.071-16.854v-9.934c0-8.87,7.629-16.321,16.943-16.321
				C369.241,688.021,377.047,694.763,377.047,704.165z M367.024,707.004c3.549,0,4.435-0.532,4.435-3.016
				c0-5.676-4.524-11.176-11.087-11.176c-6.12,0-11.088,4.878-11.088,10.822v3.371h17.74L367.024,707.004L367.024,707.004z"/>
			<path fill="#414042" d="M417.491,664.959v63.245c0,1.153-1.153,2.307-2.749,2.307c-1.508,0-2.749-1.153-2.749-2.307v-3.903
				c-1.951,3.636-6.653,6.83-12.152,6.83c-8.427,0-15.701-8.072-15.701-16.854v-9.669c0-9.136,7.185-16.587,15.878-16.587
				c5.854,0,9.845,3.282,11.709,6.741v-29.804c0-1.242,1.331-2.129,3.016-2.129C416.339,662.83,417.491,663.717,417.491,664.959z
				 M389.905,714.277c0,5.854,5.056,11.531,10.999,11.531c6.209,0,10.822-6.12,10.822-8.781v-12.418
				c0-7.096-5.411-11.265-10.733-11.265c-6.12,0-11.088,5.589-11.088,11.265V714.277z"/>
			<path fill="#414042" d="M435.317,672.409c0,1.951-1.685,3.725-3.814,3.725c-2.218,0-3.991-1.774-3.991-3.725
				c0-1.951,1.774-3.636,3.991-3.636C433.632,668.773,435.317,670.458,435.317,672.409z M434.431,690.682v37.521
				c0,1.153-1.331,2.307-2.927,2.307s-2.838-1.153-2.838-2.307v-37.521c0-1.242,1.242-2.129,2.838-2.129
				S434.431,689.44,434.431,690.682z"/>
			<path fill="#414042" d="M473.636,705.141v23.063c0,1.331-1.153,2.307-2.838,2.307c-1.508,0-2.661-0.976-2.661-2.307v-3.903
				c-3.105,3.549-7.451,6.83-13.394,6.83c-6.741,0-12.063-3.725-12.063-11.709c0-9.669,8.338-12.152,20.668-12.152h4.524v-2.129
				c0-5.676-2.838-12.063-10.467-12.063c-5.943,0-8.072,2.573-9.491,2.573c-1.508,0-2.307-1.774-2.307-3.105
				c0-2.306,6.298-4.524,11.974-4.524C469.467,688.021,473.636,696.27,473.636,705.141z M467.871,711.261h-3.725
				c-8.161,0-15.701,0.798-15.701,7.629c0,5.145,3.371,7.362,7.718,7.362c5.676,0,11.709-5.322,11.709-9.314v-5.677H467.871z"/>
		</g>
	</g>
</g>
</svg>
